<?xml version="1.0" encoding="UTF-8"?>
<svg version="1.1" xmlns="http://www.w3.org/2000/svg" width="512" height="512">
<path d="M0 0 C0.52271484 0.43393066 1.04542969 0.86786133 1.58398438 1.31494141 C13.92823131 11.57248981 25.10275756 22.32520107 35 35 C35.77730469 35.96035156 36.55460937 36.92070313 37.35546875 37.91015625 C77.55887885 88.46802174 94.12026856 153.18102674 87.36376953 216.95996094 C81.37807389 266.9827006 60.23641063 313.34310121 26.28125 350.49609375 C24.76460508 352.16076737 23.26436472 353.84054101 21.78125 355.53515625 C-17.77719061 400.59556307 -79.23176576 426.84108115 -138.375 430.6875 C-140.91586908 430.8095838 -143.45763251 430.91463194 -146 431 C-147.13566406 431.04125 -148.27132812 431.0825 -149.44140625 431.125 C-206.20468278 432.13976249 -264.70581282 413.24154588 -308 376 C-309.1034281 375.07854194 -310.20766106 374.15804722 -311.3125 373.23828125 C-321.72142363 364.5160281 -331.35605843 355.39175268 -339.828125 344.7265625 C-341.24579057 342.94683126 -342.69284997 341.19001353 -344.171875 339.4609375 C-383.80084152 292.94608672 -400.85455769 228.55527539 -396.25 168.375 C-392.02338693 119.61290794 -374.15405926 71.37986239 -342 34 C-341.07854194 32.8965719 -340.15804722 31.79233894 -339.23828125 30.6875 C-329.72303106 19.33223309 -319.62450006 9.23364544 -308 0 C-305.32898291 -2.21773088 -302.6606753 -4.43860399 -299.99609375 -6.6640625 C-219.65856032 -69.30010551 -100.69924798 -70.44007189 0 0 Z M-178.4375 -38.6875 C-179.5929834 -38.55432373 -180.7484668 -38.42114746 -181.93896484 -38.28393555 C-190.40355874 -37.27223818 -198.69639153 -35.93202771 -207 -34 C-207.33 -33.01 -207.66 -32.02 -208 -31 C-206.78526573 -28.61160944 -205.5347602 -26.3928751 -204.125 -24.125 C-199.35365032 -16.3898768 -199.35365032 -16.3898768 -199 -12 C-200 -9.1875 -200 -9.1875 -202 -7 C-205.4375 -6.4375 -205.4375 -6.4375 -209 -7 C-213.24211094 -10.32748743 -215.52781342 -15.06728232 -218.125 -19.6875 C-218.99775635 -21.23581556 -219.87513692 -22.7815365 -220.7578125 -24.32421875 C-221.1408252 -25.00572998 -221.52383789 -25.68724121 -221.91845703 -26.3894043 C-222.91855836 -28.16479042 -222.91855836 -28.16479042 -225 -29 C-227.33920644 -28.35657913 -227.33920644 -28.35657913 -229.99609375 -27.26171875 C-231.02162354 -26.85808105 -232.04715332 -26.45444336 -233.10375977 -26.03857422 C-234.75396118 -25.36979248 -234.75396118 -25.36979248 -236.4375 -24.6875 C-238.11187134 -24.01485107 -238.11187134 -24.01485107 -239.82006836 -23.32861328 C-249.91080868 -19.19210804 -259.49290972 -14.32578359 -269 -9 C-266.5339456 -6.52957316 -264.06435446 -4.06342028 -261.578125 -1.61328125 C-260.80984375 -0.85402344 -260.0415625 -0.09476563 -259.25 0.6875 C-258.08210938 1.83798828 -258.08210938 1.83798828 -256.890625 3.01171875 C-254.50873008 5.51664543 -254.04517332 6.46921351 -253.75 9.9375 C-254 13 -254 13 -255.125 14.875 C-257.89811995 16.53887197 -259.80399163 16.32153781 -263 16 C-265.74609375 14.27734375 -265.74609375 14.27734375 -268.4375 11.9375 C-269.38109375 11.1228125 -270.3246875 10.308125 -271.296875 9.46875 C-274.64220269 6.41347962 -277.89310228 3.29776515 -281 0 C-295.3850347 4.90097867 -308.64196428 20.36778099 -319 31 C-316.97567293 33.17930132 -315.11116335 34.63204905 -312.4609375 35.97265625 C-311.79835938 36.31490234 -311.13578125 36.65714844 -310.453125 37.00976562 C-309.05991655 37.71553569 -307.66668715 38.42126441 -306.2734375 39.12695312 C-301.10029728 41.79940545 -301.10029728 41.79940545 -300 44 C-299.55603917 49.21653972 -299.55603917 49.21653972 -301.0625 51.875 C-304.16522179 53.67658039 -306.4417438 53.31996177 -310 53 C-313.20580368 51.73666425 -316.17734008 50.10760521 -319.1875 48.4375 C-320.75832116 47.57106006 -322.33497591 46.71509077 -323.91796875 45.87109375 C-324.60656982 45.48880615 -325.2951709 45.10651855 -326.00463867 44.71264648 C-328.49876447 43.82186547 -329.57802368 43.95783675 -332 45 C-333.5476378 46.45961332 -333.5476378 46.45961332 -334.84765625 48.3671875 C-335.36553711 49.07931396 -335.88341797 49.79144043 -336.41699219 50.52514648 C-336.96000977 51.30059814 -337.50302734 52.0760498 -338.0625 52.875 C-338.62743164 53.66914307 -339.19236328 54.46328613 -339.77441406 55.28149414 C-349.79423433 69.38927378 -349.79423433 69.38927378 -357 85 C-356.40985107 85.10546143 -355.81970215 85.21092285 -355.21166992 85.31958008 C-352.53457415 85.80505558 -349.86117709 86.30855127 -347.1875 86.8125 C-346.25873047 86.97814453 -345.32996094 87.14378906 -344.37304688 87.31445312 C-343.48037109 87.48525391 -342.58769531 87.65605469 -341.66796875 87.83203125 C-340.84578857 87.98389893 -340.0236084 88.1357666 -339.17651367 88.29223633 C-336.66730274 89.10818725 -335.57564881 89.89465834 -334 92 C-333.34958537 98.07053652 -333.34958537 98.07053652 -335.2109375 100.73046875 C-337.67068796 102.47592486 -339.03501346 102.17881374 -342 101.8125 C-342.97195313 101.69648438 -343.94390625 101.58046875 -344.9453125 101.4609375 C-348.8162449 100.87683261 -352.65689284 100.18657564 -356.4921875 99.40234375 C-359.03903752 98.99373697 -361.42531411 98.93078801 -364 99 C-368.06635514 108.74481558 -371.6074688 118.48943132 -374.375 128.6875 C-374.62523926 129.6067627 -374.87547852 130.52602539 -375.13330078 131.47314453 C-376.4082411 136.30622266 -377.4159057 141.03519843 -378 146 C-377.02389771 145.9388501 -377.02389771 145.9388501 -376.02807617 145.87646484 C-373.08176908 145.6981558 -370.13477998 145.5363943 -367.1875 145.375 C-365.65125977 145.27832031 -365.65125977 145.27832031 -364.08398438 145.1796875 C-363.10107422 145.128125 -362.11816406 145.0765625 -361.10546875 145.0234375 C-360.19949951 144.97106934 -359.29353027 144.91870117 -358.36010742 144.86474609 C-356 145 -356 145 -353 147 C-352.0625 150.375 -352.0625 150.375 -352 154 C-354.0394189 156.68166015 -355.3900939 157.83256161 -358.65722656 158.72949219 C-359.64174805 158.83422852 -360.62626953 158.93896484 -361.640625 159.046875 C-363.24550781 159.23056641 -363.24550781 159.23056641 -364.8828125 159.41796875 C-365.99398437 159.52753906 -367.10515625 159.63710937 -368.25 159.75 C-369.37664062 159.87503906 -370.50328125 160.00007812 -371.6640625 160.12890625 C-374.44140982 160.43488519 -377.21948051 160.72461309 -380 161 C-382.82781321 169.48343963 -382.1025848 179.21936371 -382.125 188.0625 C-382.12959229 189.06692139 -382.13418457 190.07134277 -382.13891602 191.10620117 C-382.12528342 197.78780877 -381.71673968 204.3575048 -381 211 C-379.92621094 210.57847656 -378.85242188 210.15695312 -377.74609375 209.72265625 C-376.31004434 209.16888556 -374.87383798 208.61552176 -373.4375 208.0625 C-372.73302734 207.78470703 -372.02855469 207.50691406 -371.30273438 207.22070312 C-366.88577636 205.53126757 -362.76407206 204.32157486 -358 204 C-355.5625 205.5625 -355.5625 205.5625 -354 208 C-353.5625 211.0625 -353.5625 211.0625 -354 214 C-356.1563505 216.71436467 -358.43427224 217.78032608 -361.6328125 219.0078125 C-362.52097656 219.35457031 -363.40914063 219.70132812 -364.32421875 220.05859375 C-365.71060547 220.58646484 -365.71060547 220.58646484 -367.125 221.125 C-368.96176625 221.83379361 -370.79774906 222.54462191 -372.6328125 223.2578125 C-373.44637207 223.5686377 -374.25993164 223.87946289 -375.09814453 224.19970703 C-376.97408022 224.84824727 -376.97408022 224.84824727 -378 226 C-377.90568425 233.29155046 -376.12987843 240.31282782 -374.25 247.3125 C-373.98413086 248.31490723 -373.71826172 249.31731445 -373.44433594 250.35009766 C-370.44894646 261.43814703 -370.44894646 261.43814703 -366 272 C-365.34 272.33 -364.68 272.66 -364 273 C-363.10539062 272.2059375 -362.21078125 271.411875 -361.2890625 270.59375 C-350.32458681 261.21451802 -350.32458681 261.21451802 -344.125 261.3125 C-341.6953125 261.61328125 -341.6953125 261.61328125 -340 262 C-338.73046875 267.6640625 -338.73046875 267.6640625 -339 270 C-342.40756052 274.87543275 -346.60113449 278.30387228 -351.3125 281.875 C-351.95767578 282.37257813 -352.60285156 282.87015625 -353.26757812 283.3828125 C-354.84046574 284.59451851 -356.4195916 285.79811973 -358 287 C-357.42486408 292.09550245 -355.03789236 296.04903007 -352.5625 300.4375 C-352.11946533 301.22793701 -351.67643066 302.01837402 -351.2199707 302.83276367 C-348.27301738 307.99629998 -345.13794589 312.97107458 -341.6875 317.8125 C-341.29183838 318.36800537 -340.89617676 318.92351074 -340.48852539 319.49584961 C-337.91628562 323.00011503 -335.12811081 326.0047647 -332 329 C-330.93563167 327.64730134 -329.87362059 326.29274784 -328.8125 324.9375 C-327.84957031 323.71353516 -327.84957031 323.71353516 -326.8671875 322.46484375 C-325.27210959 320.35920743 -323.85355603 318.22589199 -322.4375 316 C-320 313 -320 313 -316.9375 311.9375 C-312.20708447 312.03814714 -312.20708447 312.03814714 -310 314 C-308.811728 316.93940968 -308.50083654 317.9670394 -309 321 C-310.96681879 324.92771342 -313.45791815 328.42613199 -316 332 C-317.15064549 333.72596823 -318.29694891 335.45484464 -319.4375 337.1875 C-320.29045917 338.45914409 -321.14413484 339.73030993 -322 341 C-311.4919002 353.90995118 -299.40462423 364.22987277 -286 374 C-283.90648321 371.90648321 -283.51011999 370.94113552 -282.66796875 368.19140625 C-282.42626953 367.44439453 -282.18457031 366.69738281 -281.93554688 365.92773438 C-281.43902848 364.35780284 -280.95194737 362.78485365 -280.47460938 361.20898438 C-279.26200032 357.51386859 -278.54840967 355.45743718 -275.50390625 352.91796875 C-272.05868404 351.65489976 -270.26823409 352.51443905 -267 354 C-266 355 -266 355 -265.74609375 358.48046875 C-265.80729156 363.4686463 -267.33200908 367.6812305 -269.0625 372.3125 C-269.64489936 373.8889289 -270.21949768 375.46826823 -270.78515625 377.05078125 C-271.04176025 377.73825439 -271.29836426 378.42572754 -271.56274414 379.1340332 C-272.22125565 381.21011832 -272.22125565 381.21011832 -271 384 C-269.06099597 385.40464532 -269.06099597 385.40464532 -266.609375 386.63671875 C-265.68133057 387.12817383 -264.75328613 387.61962891 -263.79711914 388.12597656 C-262.79156982 388.6412793 -261.78602051 389.15658203 -260.75 389.6875 C-259.7283374 390.21698242 -258.7066748 390.74646484 -257.65405273 391.29199219 C-247.72841492 396.32849553 -237.50234911 400.3444409 -227 404 C-226.98541748 403.42032471 -226.97083496 402.84064941 -226.95581055 402.2434082 C-226.88101472 399.59912447 -226.78446102 396.95605998 -226.6875 394.3125 C-226.65366211 392.94448242 -226.65366211 392.94448242 -226.61914062 391.54882812 C-226.26419019 382.67506728 -226.26419019 382.67506728 -223 379 C-217.21426081 378.17346583 -217.21426081 378.17346583 -214.29956055 380.1574707 C-212.43518366 382.80080197 -212.66005323 384.77030426 -212.70703125 387.98046875 C-212.71669922 389.14384766 -212.72636719 390.30722656 -212.73632812 391.50585938 C-212.76146484 392.72080078 -212.78660156 393.93574219 -212.8125 395.1875 C-212.82603516 396.41404297 -212.83957031 397.64058594 -212.85351562 398.90429688 C-212.88891259 401.93663664 -212.9382924 404.96809996 -213 408 C-196.97811681 412.78228938 -180.69221405 415.19855264 -164 416 C-164.43722126 411.91926821 -164.92725018 408.0701944 -166.0625 404.125 C-167.32394336 399.4342995 -167.17788866 394.82275933 -167 390 C-159.375 388.875 -159.375 388.875 -156 390 C-153.52169626 395.65741316 -151.91754574 401.54532878 -150.3125 407.5 C-150.08755859 408.32242187 -149.86261719 409.14484375 -149.63085938 409.9921875 C-149.08388575 411.99387823 -148.54146031 413.99681088 -148 416 C-137.43583883 415.73016191 -127.12755591 414.72755156 -116.6875 413.0625 C-115.60863525 412.89266602 -114.52977051 412.72283203 -113.41821289 412.54785156 C-108.66844853 411.76078416 -104.44010455 410.91619247 -100 409 C-101.66353857 403.32539127 -104.43586196 398.92636876 -107.63671875 394 C-109.26080072 390.42608896 -109.12451763 388.71671556 -108 385 C-106 383 -106 383 -102.203125 382.3984375 C-99.5763398 382.46843765 -98.42240055 382.60923892 -96.47460938 384.41113281 C-95.0793216 386.42248093 -93.90032933 388.46434853 -92.75 390.625 C-91.9328525 392.05500812 -91.11515201 393.48470041 -90.296875 394.9140625 C-89.91466797 395.6040332 -89.53246094 396.29400391 -89.13867188 397.00488281 C-87.56035778 399.77031651 -85.8037496 402.37711641 -84 405 C-73.91807105 401.79272864 -64.30478871 397.92804473 -54.75 393.375 C-53.26874634 392.67443481 -53.26874634 392.67443481 -51.75756836 391.9597168 C-47.08706399 389.69704542 -42.87356134 387.52593404 -39 384 C-39.83144531 383.25234375 -40.66289062 382.5046875 -41.51953125 381.734375 C-42.61735364 380.73976668 -43.71500067 379.74496479 -44.8125 378.75 C-45.35970703 378.25886719 -45.90691406 377.76773437 -46.47070312 377.26171875 C-53.80476905 370.59438609 -53.80476905 370.59438609 -54.375 365.9375 C-54 363 -54 363 -52.9375 361.125 C-49.75465274 359.27689514 -47.63400829 359.52919731 -44 360 C-41.09382922 361.95278644 -38.74358613 364.36786576 -36.3125 366.875 C-35.02081843 368.16796173 -33.72536869 369.4571724 -32.42578125 370.7421875 C-31.58140503 371.60626221 -31.58140503 371.60626221 -30.7199707 372.48779297 C-28.91764339 374.07240835 -27.18388657 375.02613288 -25 376 C-11.99837447 366.5457723 -0.23385884 356.53122569 11 345 C8.97567293 342.82069868 7.11116335 341.36795095 4.4609375 340.02734375 C3.79835938 339.68509766 3.13578125 339.34285156 2.453125 338.99023438 C1.05991655 338.28446431 -0.33331285 337.57873559 -1.7265625 336.87304688 C-6.89970272 334.20059455 -6.89970272 334.20059455 -8 332 C-8.44396083 326.78346028 -8.44396083 326.78346028 -6.9375 324.125 C-3.83672148 322.32454795 -1.5566699 322.68400761 2 323 C5.22760774 324.23911032 8.21847187 325.84508383 11.25 327.5 C12.83575934 328.34896762 14.42419731 329.19295615 16.015625 330.03125 C16.70946289 330.40830078 17.40330078 330.78535156 18.11816406 331.17382812 C20.11528789 332.20099503 20.11528789 332.20099503 23 332 C25.02083087 329.69091248 26.82721909 327.41245543 28.625 324.9375 C29.42079468 323.85734619 29.42079468 323.85734619 30.23266602 322.75537109 C37.49982799 312.74293399 43.69588302 302.17978563 49 291 C48.40985107 290.88930176 47.81970215 290.77860352 47.21166992 290.66455078 C44.53555054 290.15845008 41.86156297 289.6418511 39.1875 289.125 C37.7943457 288.86396484 37.7943457 288.86396484 36.37304688 288.59765625 C35.48037109 288.42363281 34.58769531 288.24960937 33.66796875 288.0703125 C32.84578857 287.91320801 32.0236084 287.75610352 31.17651367 287.59423828 C29 287 29 287 26 285 C25.10437885 281.83087902 24.71084787 279.82297146 25.8125 276.6875 C27 275 27 275 29 274 C35.57932184 274.15084865 42.05932058 275.28227899 48.4921875 276.59765625 C51.03903752 277.00626303 53.42531411 277.06921199 56 277 C60.06635514 267.25518442 63.6074688 257.51056868 66.375 247.3125 C66.62523926 246.3932373 66.87547852 245.47397461 67.13330078 244.52685547 C68.4082411 239.69377734 69.4159057 234.96480157 70 230 C69.35450195 230.05124023 68.70900391 230.10248047 68.04394531 230.15527344 C65.11380178 230.37548199 62.18244582 230.56305658 59.25 230.75 C58.23421875 230.83121094 57.2184375 230.91242188 56.171875 230.99609375 C48.67736532 231.43984761 48.67736532 231.43984761 45.29296875 229.2421875 C44 227 44 227 44.0625 223.375 C45 220 45 220 48 218 C50.54370117 217.49755859 50.54370117 217.49755859 53.54296875 217.1484375 C54.61611328 217.01953125 55.68925781 216.890625 56.79492188 216.7578125 C58.47424805 216.56832031 58.47424805 216.56832031 60.1875 216.375 C61.31865234 216.2409375 62.44980469 216.106875 63.61523438 215.96875 C66.40939511 215.63863818 69.20421689 215.31602577 72 215 C74.86573342 206.40279973 74.10111797 196.35175017 74.125 187.375 C74.13188843 185.94559082 74.13188843 185.94559082 74.13891602 184.48730469 C74.12484642 177.94325257 73.69510505 171.50611998 73 165 C71.92621094 165.42152344 70.85242188 165.84304687 69.74609375 166.27734375 C68.31004434 166.83111444 66.87383798 167.38447824 65.4375 167.9375 C64.73302734 168.21529297 64.02855469 168.49308594 63.30273438 168.77929688 C58.88577636 170.46873243 54.76407206 171.67842514 50 172 C47.5625 170.4375 47.5625 170.4375 46 168 C45.5625 164.9375 45.5625 164.9375 46 162 C48.1563505 159.28563533 50.43427224 158.21967392 53.6328125 156.9921875 C54.52097656 156.64542969 55.40914063 156.29867187 56.32421875 155.94140625 C57.24847656 155.58949219 58.17273438 155.23757812 59.125 154.875 C60.96176625 154.16620639 62.79774906 153.45537809 64.6328125 152.7421875 C65.44637207 152.4313623 66.25993164 152.12053711 67.09814453 151.80029297 C68.97408022 151.15175273 68.97408022 151.15175273 70 150 C69.57479357 136.81860059 65.10026572 123.75053895 60.8125 111.375 C60.56282471 110.64659912 60.31314941 109.91819824 60.0559082 109.16772461 C58.91762879 105.37255946 58.91762879 105.37255946 56 103 C55.10539062 103.7940625 54.21078125 104.588125 53.2890625 105.40625 C42.32458681 114.78548198 42.32458681 114.78548198 36.125 114.6875 C33.6953125 114.38671875 33.6953125 114.38671875 32 114 C30.73046875 108.3359375 30.73046875 108.3359375 31 106 C34.40756052 101.12456725 38.60113449 97.69612772 43.3125 94.125 C43.95767578 93.62742188 44.60285156 93.12984375 45.26757812 92.6171875 C46.84046574 91.40548149 48.4195916 90.20188027 50 89 C49.41276041 84.3465711 47.42475322 80.69344268 45.125 76.6875 C44.53477051 75.6504895 44.53477051 75.6504895 43.93261719 74.5925293 C40.90338109 69.36337837 37.65520693 64.30397261 34.25 59.3125 C33.80285645 58.65403076 33.35571289 57.99556152 32.89501953 57.31713867 C30.22338119 53.48006373 27.40655755 50.20436978 24 47 C22.93563167 48.35269866 21.87362059 49.70725216 20.8125 51.0625 C20.17054688 51.87847656 19.52859375 52.69445312 18.8671875 53.53515625 C17.27210959 55.64079257 15.85355603 57.77410801 14.4375 60 C12 63 12 63 8.9375 64.0625 C5.93379517 63.99859139 4.4389148 63.71627337 2 62 C0.4850266 58.97005319 0.54171977 57.41418768 1 54 C2.88360698 50.50509664 5.17344503 47.33670997 7.5 44.125 C8.12003906 43.24585937 8.74007813 42.36671875 9.37890625 41.4609375 C10.90699789 39.2981001 12.4474142 37.14528733 14 35 C3.16437928 22.13021329 -8.77155818 11.05825198 -23 2 C-23.20157715 2.56509277 -23.4031543 3.13018555 -23.61083984 3.71240234 C-24.5264059 6.2687301 -25.45058685 8.82185892 -26.375 11.375 C-26.69210937 12.26445313 -27.00921875 13.15390625 -27.3359375 14.0703125 C-27.8 15.34648438 -27.8 15.34648438 -28.2734375 16.6484375 C-28.69761963 17.82672119 -28.69761963 17.82672119 -29.13037109 19.02880859 C-30 21 -30 21 -32 23 C-33.875 23.265625 -33.875 23.265625 -36 23.25 C-36.70125 23.25515625 -37.4025 23.2603125 -38.125 23.265625 C-40 23 -40 23 -42 21 C-42.57511411 14.56014199 -41.1766941 9.68019906 -38.9375 3.6875 C-38.35510064 2.1110711 -37.78050232 0.53173177 -37.21484375 -1.05078125 C-36.82993774 -2.08199097 -36.82993774 -2.08199097 -36.43725586 -3.1340332 C-35.77874435 -5.21011832 -35.77874435 -5.21011832 -37 -8 C-38.98875956 -9.42130579 -38.98875956 -9.42130579 -41.49609375 -10.671875 C-42.43936523 -11.16848633 -43.38263672 -11.66509766 -44.35449219 -12.17675781 C-45.37188477 -12.69592773 -46.38927734 -13.21509766 -47.4375 -13.75 C-48.46907227 -14.28206055 -49.50064453 -14.81412109 -50.56347656 -15.36230469 C-65.13016394 -23.3935852 -65.13016394 -23.3935852 -81 -27 C-81.03738281 -25.68644531 -81.07476562 -24.37289062 -81.11328125 -23.01953125 C-81.17895657 -21.28382636 -81.24540337 -19.54815053 -81.3125 -17.8125 C-81.33505859 -16.94818359 -81.35761719 -16.08386719 -81.38085938 -15.19335938 C-81.73737807 -6.73414305 -81.73737807 -6.73414305 -85 -3 C-90.78573919 -2.17346583 -90.78573919 -2.17346583 -93.70043945 -4.1574707 C-95.56481634 -6.80080197 -95.33994677 -8.77030426 -95.29296875 -11.98046875 C-95.28330078 -13.14384766 -95.27363281 -14.30722656 -95.26367188 -15.50585938 C-95.23853516 -16.72080078 -95.21339844 -17.93574219 -95.1875 -19.1875 C-95.17396484 -20.41404297 -95.16042969 -21.64058594 -95.14648438 -22.90429688 C-95.11108741 -25.93663664 -95.0617076 -28.96809996 -95 -32 C-111.02188319 -36.78228938 -127.30778595 -39.19855264 -144 -40 C-143.56277874 -35.91926821 -143.07274982 -32.0701944 -141.9375 -28.125 C-140.67605664 -23.4342995 -140.82211134 -18.82275933 -141 -14 C-142.43410368 -13.75045995 -143.87260072 -13.52607358 -145.3125 -13.3125 C-146.11300781 -13.18488281 -146.91351563 -13.05726562 -147.73828125 -12.92578125 C-150 -13 -150 -13 -151.55908203 -14.25341797 C-153.16110361 -16.19527875 -153.68945702 -17.59460213 -154.31640625 -20.01953125 C-154.52330078 -20.79490234 -154.73019531 -21.57027344 -154.94335938 -22.36914062 C-155.14767578 -23.17544922 -155.35199219 -23.98175781 -155.5625 -24.8125 C-155.97907553 -26.40270937 -156.39701761 -27.99256147 -156.81640625 -29.58203125 C-157.01379395 -30.33564941 -157.21118164 -31.08926758 -157.41455078 -31.86572266 C-158.16879405 -34.61534512 -159.05964498 -37.30893794 -160 -40 C-166.22488738 -40.08114164 -172.26182083 -39.40495695 -178.4375 -38.6875 Z " fill="#000000" transform="translate(410,68)"/>
<path d="M0 0 C0.96421875 0.88171875 1.9284375 1.7634375 2.921875 2.671875 C4.12070312 3.74695313 4.12070312 3.74695313 5.34375 4.84375 C28.7573503 26.92891908 40.60496935 58.7411041 42.046875 90.41796875 C42.78892819 124.59879385 29.85314406 155.76185243 6.921875 180.671875 C6.30699219 181.35765625 5.69210937 182.0434375 5.05859375 182.75 C-16.94546623 206.11907611 -48.89051533 216.98903263 -80.21875 218.859375 C-113.4477258 219.58569141 -144.75005535 206.91839859 -169.078125 184.671875 C-169.87734375 183.95515625 -170.6765625 183.2384375 -171.5 182.5 C-193.56751579 161.68454185 -206.55447787 130.77544853 -208.078125 100.671875 C-208.15740234 99.19460938 -208.15740234 99.19460938 -208.23828125 97.6875 C-209.18176499 62.7375806 -195.92593556 31.89202263 -172.8125 6.1484375 C-127.53962599 -41.37308919 -48.59272477 -43.41462613 0 0 Z M-76.078125 -16.328125 C-76.078125 6.771875 -76.078125 29.871875 -76.078125 53.671875 C-72.118125 54.991875 -68.158125 56.311875 -64.078125 57.671875 C-62.428125 58.331875 -60.778125 58.991875 -59.078125 59.671875 C-43.238125 43.831875 -27.398125 27.991875 -11.078125 11.671875 C-28.71078661 -5.96078661 -50.89894902 -13.0746579 -75.078125 -16.328125 C-75.408125 -16.328125 -75.738125 -16.328125 -76.078125 -16.328125 Z M-154.078125 9.671875 C-154.39787308 12.75250587 -154.39787308 12.75250587 -152.29382324 14.81694031 C-151.45887329 15.64522842 -150.62392334 16.47351654 -149.76367188 17.3269043 C-149.07604515 18.01518814 -149.07604515 18.01518814 -148.37452698 18.71737671 C-146.85564496 20.23416662 -145.32640868 21.74005183 -143.796875 23.24609375 C-142.74247154 24.29490276 -141.68872795 25.34437554 -140.63562012 26.39448547 C-137.86055045 29.15809452 -135.07659 31.91257719 -132.29071045 34.6652832 C-129.45012285 37.47519622 -126.61799691 40.29360893 -123.78515625 43.11132812 C-118.22441299 48.63988575 -112.65425278 54.15883486 -107.078125 59.671875 C-104.603125 58.681875 -104.603125 58.681875 -102.078125 57.671875 C-98.118125 56.351875 -94.158125 55.031875 -90.078125 53.671875 C-90.078125 30.571875 -90.078125 7.471875 -90.078125 -16.328125 C-112.16221903 -16.328125 -138.05961863 -5.45174275 -154.078125 9.671875 Z M-166.078125 21.671875 C-182.6591219 39.61739285 -190.68719153 62.76254027 -193.078125 86.671875 C-169.978125 86.671875 -146.878125 86.671875 -123.078125 86.671875 C-121.758125 82.711875 -120.438125 78.751875 -119.078125 74.671875 C-118.418125 73.021875 -117.758125 71.371875 -117.078125 69.671875 C-123.31635021 63.41052836 -129.55723617 57.15184977 -135.80158138 50.89660645 C-138.70067235 47.99228621 -141.59882144 45.08703869 -144.49487305 42.1796875 C-147.28724587 39.37648734 -150.08202047 36.57570302 -152.87851143 33.77661133 C-153.94755383 32.7057144 -155.01571253 31.63393456 -156.08299065 30.5612793 C-157.57248061 29.06458095 -159.06501902 27.57098995 -160.55834961 26.078125 C-161.83409096 24.79905273 -161.83409096 24.79905273 -163.13560486 23.49414062 C-164.75576799 21.55784642 -164.75576799 21.55784642 -166.078125 21.671875 Z M-1.078125 21.671875 C-16.918125 37.511875 -32.758125 53.351875 -49.078125 69.671875 C-48.418125 71.321875 -47.758125 72.971875 -47.078125 74.671875 C-45.758125 78.631875 -44.438125 82.591875 -43.078125 86.671875 C-19.978125 86.671875 3.121875 86.671875 26.921875 86.671875 C25.33218945 74.00103808 25.33218945 74.00103808 22.359375 61.796875 C22.10325439 60.96027344 21.84713379 60.12367188 21.58325195 59.26171875 C17.24641604 45.82299135 10.19574009 33.33780018 0.921875 22.671875 C0.261875 22.341875 -0.398125 22.011875 -1.078125 21.671875 Z M-104.078125 77.671875 C-108.85281113 84.36224067 -109.72135661 90.63754813 -109.078125 98.671875 C-107.64689222 105.89369176 -103.1165447 111.74633922 -97.20703125 116.02734375 C-91.03197983 119.70581524 -85.14765106 120.41001669 -78.078125 119.671875 C-71.18812643 117.71448904 -64.63843071 113.77303339 -60.79296875 107.61328125 C-56.98580716 100.17635269 -55.50815529 92.70268606 -58.140625 84.546875 C-61.32674331 77.15747384 -66.91066154 72.05275399 -74.078125 68.671875 C-85.50410929 65.22076138 -96.16098819 69.01443449 -104.078125 77.671875 Z M-193.078125 100.671875 C-191.11489132 115.09699062 -191.11489132 115.09699062 -187.390625 128.921875 C-187.13643799 129.65164551 -186.88225098 130.38141602 -186.62036133 131.13330078 C-182.26793972 143.13665688 -175.90221456 155.32564997 -167.078125 164.671875 C-163.99749413 164.99162308 -163.99749413 164.99162308 -161.93305969 162.88757324 C-161.10477158 162.05262329 -160.27648346 161.21767334 -159.4230957 160.35742188 C-158.96423981 159.89900406 -158.50538391 159.44058624 -158.03262329 158.96827698 C-156.51583338 157.44939496 -155.00994817 155.92015868 -153.50390625 154.390625 C-152.45509724 153.33622154 -151.40562446 152.28247795 -150.35551453 151.22937012 C-147.59190548 148.45430045 -144.83742281 145.67034 -142.0847168 142.88446045 C-139.27480378 140.04387285 -136.45639107 137.21174691 -133.63867188 134.37890625 C-128.11011425 128.81816299 -122.59116514 123.24800278 -117.078125 117.671875 C-118.068125 115.196875 -118.068125 115.196875 -119.078125 112.671875 C-120.398125 108.711875 -121.718125 104.751875 -123.078125 100.671875 C-146.178125 100.671875 -169.278125 100.671875 -193.078125 100.671875 Z M-43.078125 100.671875 C-44.398125 104.631875 -45.718125 108.591875 -47.078125 112.671875 C-47.738125 114.321875 -48.398125 115.971875 -49.078125 117.671875 C-33.238125 133.511875 -17.398125 149.351875 -1.078125 165.671875 C16.97344676 147.62030324 23.61657515 125.46162389 26.921875 100.671875 C3.821875 100.671875 -19.278125 100.671875 -43.078125 100.671875 Z M-107.078125 127.671875 C-122.918125 143.511875 -138.758125 159.351875 -155.078125 175.671875 C-137.02655324 193.72344676 -114.86787389 200.36657515 -90.078125 203.671875 C-90.078125 180.571875 -90.078125 157.471875 -90.078125 133.671875 C-94.038125 132.351875 -97.998125 131.031875 -102.078125 129.671875 C-104.553125 128.681875 -104.553125 128.681875 -107.078125 127.671875 Z M-66.71484375 130.6015625 C-69.70690112 131.95664303 -72.91989563 132.76952375 -76.078125 133.671875 C-76.078125 156.771875 -76.078125 179.871875 -76.078125 203.671875 C-52.40823022 200.51588903 -31.66122263 194.03499389 -13.078125 178.671875 C-12.418125 177.681875 -11.758125 176.691875 -11.078125 175.671875 C-17.29613861 169.40759688 -23.51948247 163.14867835 -29.74976921 156.89660645 C-32.64232156 153.99360029 -35.53297743 151.08875617 -38.41943359 148.1796875 C-41.20314689 145.37430266 -43.99166469 142.57377873 -46.78363419 139.77661133 C-47.84994544 138.70659406 -48.91448983 137.63481316 -49.97726059 136.5612793 C-51.46186164 135.06223892 -52.95252378 133.56949509 -54.44482422 132.078125 C-55.29309784 131.22541016 -56.14137146 130.37269531 -57.01535034 129.49414062 C-60.68110755 126.25579206 -62.90992253 128.54278749 -66.71484375 130.6015625 Z " fill="#000000" transform="translate(339.078125,162.328125)"/>
<path d="M0 0 C0.61601074 0.33580078 1.23202148 0.67160156 1.86669922 1.01757812 C40.19911084 22.01127096 67.31264097 58.5029454 79.52734375 100.0859375 C91.15569801 141.48010709 87.15413143 187.34024112 66.04296875 225.15429688 C65.69878906 225.76337891 65.35460937 226.37246094 65 227 C64.64292969 227.64259766 64.28585937 228.28519531 63.91796875 228.94726562 C59.0373957 237.66503834 53.62823752 245.485696 47 253 C46.2575 253.85207031 45.515 254.70414062 44.75 255.58203125 C42.53320293 258.08747377 40.27768726 260.54988219 38 263 C37.3503125 263.71542969 36.700625 264.43085938 36.03125 265.16796875 C25.08681952 276.7227617 11.82553836 285.7723365 -2.24072266 293.07714844 C-3.78533968 293.88739717 -5.30696846 294.74115777 -6.82421875 295.6015625 C-41.96136367 314.78593067 -86.84382061 317.65016681 -125.06494141 307.15869141 C-138.0015425 303.33111441 -150.24111943 298.61141879 -162 292 C-162.61601074 291.66419922 -163.23202148 291.32839844 -163.86669922 290.98242188 C-202.19911084 269.98872904 -229.31264097 233.4970546 -241.52734375 191.9140625 C-253.51994346 149.23167293 -248.40696842 103.80953909 -227 65 C-226.66274902 64.37818848 -226.32549805 63.75637695 -225.97802734 63.11572266 C-204.61500393 24.13099317 -167.65573753 -2.53669949 -125.52075195 -15.00195312 C-83.79805906 -26.74689319 -37.76571145 -21.23373334 0 0 Z M-192.20703125 41.9609375 C-215.53082583 68.48603722 -231.82696699 102.19699254 -233 138 C-233.03996094 139.19367188 -233.07992187 140.38734375 -233.12109375 141.6171875 C-234.0776043 185.23298794 -216.37701637 224.28606605 -186.6875 255.625 C-163.39984031 277.92403263 -132.09195609 293.28966874 -100 297 C-98.71222656 297.16435547 -98.71222656 297.16435547 -97.3984375 297.33203125 C-58.66282988 301.6169436 -18.51535995 290.29845735 12 266 C43.17560923 240.76709389 65.44278953 205.48223329 70 165 C70.10957031 164.05640625 70.21914063 163.1128125 70.33203125 162.140625 C74.21701703 122.9799683 63.24059601 83.08662265 38.5625 52.25 C37.05603273 50.48761798 35.53473367 48.73782237 34 47 C33.15824219 46.02546875 32.31648438 45.0509375 31.44921875 44.046875 C5.09370455 14.01317365 -33.3884599 -3.29216151 -73 -6 C-117.63591181 -8.09845619 -161.24820159 9.70260141 -192.20703125 41.9609375 Z " fill="#000000" transform="translate(337,110)"/>
</svg>
